<svg version="1.0" xmlns="http://www.w3.org/2000/svg"
 width="1000.000000pt" height="437.000000pt" viewBox="0 0 1000.000000 437.000000"
 preserveAspectRatio="xMidYMid meet">
<g transform="translate(0.000000,437.000000) scale(0.100000,-0.100000)"
fill="#ac1a2f" stroke="none">
<path d="M3450 4290 l0 -80 145 0 145 0 0 -385 0 -385 85 0 85 0 0 385 0 385
145 0 145 0 0 80 0 80 -375 0 -375 0 0 -80z"/>
<path d="M4490 3905 l0 -465 90 0 90 0 0 200 0 200 233 -2 232 -3 3 -197 2
-198 85 0 85 0 0 465 0 465 -85 0 -85 0 0 -200 0 -200 -235 0 -235 0 0 200 0
200 -90 0 -90 0 0 -465z"/>
<path d="M5710 3905 l0 -465 345 0 345 0 0 75 0 75 -260 0 -261 0 3 123 3 122
228 3 227 2 0 65 0 65 -230 0 -230 0 0 120 0 120 253 2 252 3 3 78 3 77 -341
0 -340 0 0 -465z"/>
<path d="M0 2180 l0 -1790 1245 0 1245 0 0 65 0 65 -1175 2 -1175 3 0 1655 0
1655 1555 3 1555 2 0 65 0 65 -1625 0 -1625 0 0 -1790z"/>
<path d="M6750 3905 l0 -65 1558 -2 1557 -3 0 -1655 0 -1655 -1177 -3 -1176
-2 -4 -65 -3 -65 1248 0 1247 0 0 1790 0 1790 -1625 0 -1625 0 0 -65z"/>
<path d="M690 2140 l0 -520 100 0 100 0 0 210 0 210 260 0 260 0 0 -210 0
-210 100 0 100 0 0 520 0 520 -100 0 -100 0 0 -220 0 -220 -260 0 -260 0 0
220 0 220 -100 0 -100 0 0 -520z"/>
<path d="M2363 2623 c-8 -21 -80 -186 -160 -368 -80 -181 -174 -396 -209 -476
-35 -80 -64 -149 -64 -153 0 -4 45 -5 101 -4 l100 3 62 145 62 145 224 0 225
0 60 -147 61 -148 107 0 107 0 -33 78 c-43 98 -314 725 -371 857 l-44 100
-106 3 -106 3 -16 -38z m190 -345 c36 -90 69 -171 73 -180 6 -17 -5 -18 -146
-18 -140 0 -152 1 -148 18 9 33 142 342 148 342 3 0 36 -73 73 -162z"/>
<path d="M3350 2141 l0 -521 100 0 100 0 0 155 0 156 137 -3 137 -3 90 -152
90 -153 113 0 113 0 -115 172 -114 172 48 27 c106 61 155 159 155 314 0 126
-22 183 -100 254 -98 90 -123 95 -461 99 l-293 3 0 -520z m580 319 c64 -36 93
-94 87 -177 -6 -80 -33 -124 -95 -155 -42 -21 -64 -23 -209 -26 l-163 -4 0
197 0 197 168 -4 c156 -3 170 -5 212 -28z"/>
<path d="M4486 2638 c4 -13 89 -230 189 -483 100 -253 188 -477 196 -497 l13
-38 106 0 105 0 194 488 c107 268 201 502 208 520 l13 32 -102 0 -103 0 -139
-373 c-176 -467 -166 -444 -176 -427 -5 8 -74 192 -155 408 l-147 392 -105 0
c-104 0 -104 0 -97 -22z"/>
<path d="M6071 2643 c-5 -10 -94 -214 -199 -453 -105 -239 -204 -465 -221
-502 l-30 -68 103 0 103 0 58 138 c32 75 62 143 68 150 7 9 61 12 229 10 l220
-3 61 -147 61 -148 107 0 107 0 -65 148 c-35 81 -136 315 -225 520 l-160 372
-104 0 c-88 0 -105 -3 -113 -17z m184 -374 c39 -94 72 -175 73 -180 2 -5 -58
-9 -148 -9 l-152 0 6 23 c10 40 137 337 144 337 4 0 39 -77 77 -171z"/>
<path d="M7050 2140 l0 -520 100 0 100 0 0 155 0 155 135 0 134 0 92 -155 91
-155 109 0 c60 0 109 2 109 5 0 3 -50 80 -111 172 -62 92 -107 169 -101 171 5
1 31 17 56 34 54 35 96 92 121 163 24 68 24 203 1 272 -22 65 -91 144 -151
173 -92 45 -135 50 -417 50 l-268 0 0 -520z m572 322 c152 -75 118 -315 -50
-351 -29 -6 -114 -11 -187 -11 l-135 0 0 196 0 195 163 -3 c146 -3 167 -5 209
-26z"/>
<path d="M8310 2140 l0 -520 253 0 c220 0 264 3 331 20 227 58 371 227 391
460 23 256 -137 479 -390 545 -46 12 -117 15 -322 15 l-263 0 0 -520z m546
329 c56 -17 77 -31 124 -78 80 -80 103 -144 98 -271 -5 -116 -31 -174 -108
-243 -75 -67 -117 -79 -302 -85 l-158 -4 0 351 0 351 139 0 c113 0 152 -4 207
-21z"/>
<path d="M3161 939 c-72 -12 -130 -39 -179 -84 -55 -49 -75 -105 -70 -193 7
-128 68 -182 278 -248 153 -48 188 -67 206 -110 40 -95 -65 -163 -208 -136
-70 13 -174 59 -227 101 l-37 30 -37 -74 -36 -74 31 -26 c140 -118 393 -156
558 -84 163 72 212 286 92 401 -48 47 -101 73 -236 115 -61 19 -125 43 -142
54 -56 34 -70 100 -30 138 60 56 191 47 335 -23 30 -14 58 -23 62 -19 4 5 21
39 38 76 l31 68 -74 35 c-73 35 -198 64 -266 62 -19 0 -59 -4 -89 -9z"/>
<path d="M3930 475 l0 -465 90 0 90 0 0 190 0 190 230 0 230 0 0 -190 0 -190
90 0 90 0 0 465 0 465 -90 0 -90 0 0 -210 0 -210 -230 0 -230 0 0 210 0 210
-90 0 -90 0 0 -465z"/>
<path d="M5421 924 c-171 -46 -305 -184 -340 -352 -70 -331 213 -615 562 -564
291 42 474 310 401 587 -40 158 -173 286 -339 330 -73 19 -212 18 -284 -1z
m223 -149 c247 -65 318 -366 126 -538 -187 -169 -494 -43 -517 211 -16 177
124 331 312 341 12 1 47 -6 79 -14z"/>
<path d="M6380 475 l0 -465 90 0 90 0 0 135 0 135 113 0 c202 0 296 27 374
108 108 111 109 343 2 450 -44 44 -111 78 -184 91 -32 6 -155 11 -272 11
l-213 0 0 -465z m496 284 c60 -31 84 -75 84 -150 0 -70 -27 -115 -90 -146 -39
-20 -59 -23 -177 -23 l-133 0 0 176 0 177 135 -5 c117 -5 142 -9 181 -29z"/>
</g>
</svg>
